<svg width="188" height="188" viewBox="0 0 188 188" fill="none" xmlns="http://www.w3.org/2000/svg">
<rect width="188" height="188" fill="white"/>
<rect x="90" y="49" width="10" height="2" fill="#F54E5F"/>
<rect x="94" y="49" width="2" height="6" fill="#F54E5F"/>
<path d="M96 55C73.6 54.2 67.6667 73 67.5 82.5L122.5 83C122.5 63 106 55.5 96 55Z" fill="#FFD2B9" stroke="#FFD2B9"/>
<path d="M67.5 88.5L63 82.5H126.5L122 88.5H67.5Z" fill="#87D0C7" stroke="#87D0C7"/>
<path d="M74 72C76 68 81.5 59 95.5 59" stroke="#F54E5F" stroke-width="2.3"/>
<rect x="89" y="100.5" width="10" height="2" fill="#F54E5F"/>
<rect x="93" y="100.5" width="2" height="6" fill="#F54E5F"/>
<path d="M95 106.5C72.6 105.7 66.6667 124.5 66.5 134L121.5 134.5C121.5 114.5 105 107 95 106.5Z" fill="#FFD2B9" stroke="#FFD2B9"/>
<path d="M66.5 140L62 134H125.5L121 140H66.5Z" fill="#87D0C7" stroke="#87D0C7"/>
<path d="M73 123.5C75 119.5 80.5 110.5 94.5 110.5" stroke="#F54E5F" stroke-width="2.3"/>
</svg>
