<svg width="188" height="188" viewBox="0 0 188 188" fill="none" xmlns="http://www.w3.org/2000/svg">
<rect width="188" height="188" fill="white"/>
<rect x="50" y="42" width="10" height="2" fill="#F54E5F"/>
<rect x="54" y="42" width="2" height="6" fill="#F54E5F"/>
<path d="M56 48C33.6 47.2 27.6667 66 27.5 75.5L82.5 76C82.5 56 66 48.5 56 48Z" fill="#FFD2B9" stroke="#FFD2B9"/>
<path d="M27.5 81.5L23 75.5H86.5L82 81.5H27.5Z" fill="#87D0C7" stroke="#87D0C7"/>
<path d="M34 65C36 61 41.5 52 55.5 52" stroke="#F54E5F" stroke-width="2.3"/>
<rect x="130" y="42" width="10" height="2" fill="#F54E5F"/>
<rect x="134" y="42" width="2" height="6" fill="#F54E5F"/>
<path d="M136 48C113.6 47.2 107.667 66 107.5 75.5L162.5 76C162.5 56 146 48.5 136 48Z" fill="#FFD2B9" stroke="#FFD2B9"/>
<path d="M107.5 81.5L103 75.5H166.5L162 81.5H107.5Z" fill="#87D0C7" stroke="#87D0C7"/>
<path d="M138.371 69.5234C138.371 68.8594 138.137 68.3516 137.668 68C137.199 67.6406 136.355 67.2656 135.137 66.875C133.918 66.4766 132.953 66.0859 132.242 65.7031C130.305 64.6562 129.336 63.2461 129.336 61.4727C129.336 60.5508 129.594 59.7305 130.109 59.0117C130.633 58.2852 131.379 57.7188 132.348 57.3125C133.324 56.9062 134.418 56.7031 135.629 56.7031C136.848 56.7031 137.934 56.9258 138.887 57.3711C139.84 57.8086 140.578 58.4297 141.102 59.2344C141.633 60.0391 141.898 60.9531 141.898 61.9766H138.383C138.383 61.1953 138.137 60.5898 137.645 60.1602C137.152 59.7227 136.461 59.5039 135.57 59.5039C134.711 59.5039 134.043 59.6875 133.566 60.0547C133.09 60.4141 132.852 60.8906 132.852 61.4844C132.852 62.0391 133.129 62.5039 133.684 62.8789C134.246 63.2539 135.07 63.6055 136.156 63.9336C138.156 64.5352 139.613 65.2812 140.527 66.1719C141.441 67.0625 141.898 68.1719 141.898 69.5C141.898 70.9766 141.34 72.1367 140.223 72.9805C139.105 73.8164 137.602 74.2344 135.711 74.2344C134.398 74.2344 133.203 73.9961 132.125 73.5195C131.047 73.0352 130.223 72.375 129.652 71.5391C129.09 70.7031 128.809 69.7344 128.809 68.6328H132.336C132.336 70.5156 133.461 71.457 135.711 71.457C136.547 71.457 137.199 71.2891 137.668 70.9531C138.137 70.6094 138.371 70.1328 138.371 69.5234Z" fill="#59426F"/>
<path d="M114 65C116 61 121.5 52 135.5 52" stroke="#F54E5F" stroke-width="2.3"/>
<rect x="130" y="106" width="10" height="2" fill="#F54E5F"/>
<rect x="134" y="106" width="2" height="6" fill="#F54E5F"/>
<path d="M136 112C113.6 111.2 107.667 130 107.5 139.5L162.5 140C162.5 120 146 112.5 136 112Z" fill="#FFD2B9" stroke="#FFD2B9"/>
<path d="M107.5 145.5L103 139.5H166.5L162 145.5H107.5Z" fill="#87D0C7" stroke="#87D0C7"/>
<path d="M114 129C116 125 121.5 116 135.5 116" stroke="#F54E5F" stroke-width="2.3"/>
<rect x="49" y="106" width="10" height="2" fill="#F54E5F"/>
<rect x="53" y="106" width="2" height="6" fill="#F54E5F"/>
<path d="M55 112C32.6 111.2 26.6667 130 26.5 139.5L81.5 140C81.5 120 65 112.5 55 112Z" fill="#FFD2B9" stroke="#FFD2B9"/>
<path d="M26.5 145.5L22 139.5H85.5L81 145.5H26.5Z" fill="#87D0C7" stroke="#87D0C7"/>
<path d="M33 129C35 125 40.5 116 54.5 116" stroke="#F54E5F" stroke-width="2.3"/>
</svg>
