<svg width="188" height="188" viewBox="0 0 188 188" fill="none" xmlns="http://www.w3.org/2000/svg">
<rect width="188" height="188" fill="white"/>
<rect x="90" y="24" width="10" height="2" fill="#F54E5F"/>
<rect x="94" y="24" width="2" height="6" fill="#F54E5F"/>
<path d="M96 30C73.6 29.2 67.6667 48 67.5 57.5L122.5 58C122.5 38 106 30.5 96 30Z" fill="#FFD2B9" stroke="#FFD2B9"/>
<path d="M67.5 63.5L63 57.5H126.5L122 63.5H67.5Z" fill="#87D0C7" stroke="#87D0C7"/>
<path d="M74 47C76 43 81.5 34 95.5 34" stroke="#F54E5F" stroke-width="2.3"/>
<rect x="50" y="69" width="10" height="2" fill="#F54E5F"/>
<rect x="54" y="69" width="2" height="6" fill="#F54E5F"/>
<path d="M56 75C33.6 74.2 27.6667 93 27.5 102.5L82.5 103C82.5 83 66 75.5 56 75Z" fill="#FFD2B9" stroke="#FFD2B9"/>
<path d="M27.5 108.5L23 102.5H86.5L82 108.5H27.5Z" fill="#87D0C7" stroke="#87D0C7"/>
<path d="M34 92C36 88 41.5 79 55.5 79" stroke="#F54E5F" stroke-width="2.3"/>
<path d="M58.3711 96.5234C58.3711 95.8594 58.1367 95.3516 57.668 95C57.1992 94.6406 56.3555 94.2656 55.1367 93.875C53.918 93.4766 52.9531 93.0859 52.2422 92.7031C50.3047 91.6562 49.3359 90.2461 49.3359 88.4727C49.3359 87.5508 49.5938 86.7305 50.1094 86.0117C50.6328 85.2852 51.3789 84.7188 52.3477 84.3125C53.3242 83.9062 54.418 83.7031 55.6289 83.7031C56.8477 83.7031 57.9336 83.9258 58.8867 84.3711C59.8398 84.8086 60.5781 85.4297 61.1016 86.2344C61.6328 87.0391 61.8984 87.9531 61.8984 88.9766H58.3828C58.3828 88.1953 58.1367 87.5898 57.6445 87.1602C57.1523 86.7227 56.4609 86.5039 55.5703 86.5039C54.7109 86.5039 54.043 86.6875 53.5664 87.0547C53.0898 87.4141 52.8516 87.8906 52.8516 88.4844C52.8516 89.0391 53.1289 89.5039 53.6836 89.8789C54.2461 90.2539 55.0703 90.6055 56.1562 90.9336C58.1562 91.5352 59.6133 92.2812 60.5273 93.1719C61.4414 94.0625 61.8984 95.1719 61.8984 96.5C61.8984 97.9766 61.3398 99.1367 60.2227 99.9805C59.1055 100.816 57.6016 101.234 55.7109 101.234C54.3984 101.234 53.2031 100.996 52.125 100.52C51.0469 100.035 50.2227 99.375 49.6523 98.5391C49.0898 97.7031 48.8086 96.7344 48.8086 95.6328H52.3359C52.3359 97.5156 53.4609 98.457 55.7109 98.457C56.5469 98.457 57.1992 98.2891 57.668 97.9531C58.1367 97.6094 58.3711 97.1328 58.3711 96.5234Z" fill="#59426F"/>
<rect x="130" y="69" width="10" height="2" fill="#F54E5F"/>
<rect x="134" y="69" width="2" height="6" fill="#F54E5F"/>
<path d="M136 75C113.6 74.2 107.667 93 107.5 102.5L162.5 103C162.5 83 146 75.5 136 75Z" fill="#FFD2B9" stroke="#FFD2B9"/>
<path d="M107.5 108.5L103 102.5H166.5L162 108.5H107.5Z" fill="#87D0C7" stroke="#87D0C7"/>
<path d="M114 92C116 88 121.5 79 135.5 79" stroke="#F54E5F" stroke-width="2.3"/>
<rect x="130" y="124" width="10" height="2" fill="#F54E5F"/>
<rect x="134" y="124" width="2" height="6" fill="#F54E5F"/>
<path d="M136 130C113.6 129.2 107.667 148 107.5 157.5L162.5 158C162.5 138 146 130.5 136 130Z" fill="#FFD2B9" stroke="#FFD2B9"/>
<path d="M107.5 163.5L103 157.5H166.5L162 163.5H107.5Z" fill="#87D0C7" stroke="#87D0C7"/>
<path d="M114 147C116 143 121.5 134 135.5 134" stroke="#F54E5F" stroke-width="2.3"/>
<rect x="49" y="124" width="10" height="2" fill="#F54E5F"/>
<rect x="53" y="124" width="2" height="6" fill="#F54E5F"/>
<path d="M55 130C32.6 129.2 26.6667 148 26.5 157.5L81.5 158C81.5 138 65 130.5 55 130Z" fill="#FFD2B9" stroke="#FFD2B9"/>
<path d="M26.5 163.5L22 157.5H85.5L81 163.5H26.5Z" fill="#87D0C7" stroke="#87D0C7"/>
<path d="M33 147C35 143 40.5 134 54.5 134" stroke="#F54E5F" stroke-width="2.3"/>
<path d="M138.371 151.523C138.371 150.859 138.137 150.352 137.668 150C137.199 149.641 136.355 149.266 135.137 148.875C133.918 148.477 132.953 148.086 132.242 147.703C130.305 146.656 129.336 145.246 129.336 143.473C129.336 142.551 129.594 141.73 130.109 141.012C130.633 140.285 131.379 139.719 132.348 139.312C133.324 138.906 134.418 138.703 135.629 138.703C136.848 138.703 137.934 138.926 138.887 139.371C139.84 139.809 140.578 140.43 141.102 141.234C141.633 142.039 141.898 142.953 141.898 143.977H138.383C138.383 143.195 138.137 142.59 137.645 142.16C137.152 141.723 136.461 141.504 135.57 141.504C134.711 141.504 134.043 141.688 133.566 142.055C133.09 142.414 132.852 142.891 132.852 143.484C132.852 144.039 133.129 144.504 133.684 144.879C134.246 145.254 135.07 145.605 136.156 145.934C138.156 146.535 139.613 147.281 140.527 148.172C141.441 149.062 141.898 150.172 141.898 151.5C141.898 152.977 141.34 154.137 140.223 154.98C139.105 155.816 137.602 156.234 135.711 156.234C134.398 156.234 133.203 155.996 132.125 155.52C131.047 155.035 130.223 154.375 129.652 153.539C129.09 152.703 128.809 151.734 128.809 150.633H132.336C132.336 152.516 133.461 153.457 135.711 153.457C136.547 153.457 137.199 153.289 137.668 152.953C138.137 152.609 138.371 152.133 138.371 151.523Z" fill="#59426F"/>
</svg>
