<svg width="108" height="102" viewBox="0 0 108 102" fill="none" xmlns="http://www.w3.org/2000/svg">
    <path d="M53.66 101.36C83.2956 101.36 107.32 78.8399 107.32 51.06C107.32 23.2801 83.2956 0.759995 53.66 0.759995C24.0244 0.759995 0 23.2801 0 51.06C0 78.8399 24.0244 101.36 53.66 101.36Z"
          fill="white"/>
    <path d="M53.66 97.63C81.0975 97.63 103.34 76.7799 103.34 51.06C103.34 25.3401 81.0975 4.49001 53.66 4.49001C26.2225 4.49001 3.97998 25.3401 3.97998 51.06C3.97998 76.7799 26.2225 97.63 53.66 97.63Z"
          fill="white" stroke="#404041" stroke-width="1.8456" stroke-miterlimit="10"/>
    <path d="M53.66 93.47C78.6398 93.47 98.89 74.4824 98.89 51.06C98.89 27.6376 78.6398 8.64999 53.66 8.64999C28.6801 8.64999 8.42999 27.6376 8.42999 51.06C8.42999 74.4824 28.6801 93.47 53.66 93.47Z"
          stroke="#67497F" stroke-width="0.8249" stroke-miterlimit="10"/>
    <path d="M91.4 37.91C90.59 37.11 89.45 36.86 88.39 37.32C88.06 37.46 87.76 37.66 87.51 37.91C87.26 38.15 87.06 38.44 86.9 38.77C86.74 39.11 86.66 39.47 86.66 39.83V55.09C86.66 57.49 85.8 59.5 84.04 61.24C82.29 62.96 80.25 63.8 77.79 63.8C75.34 63.8 73.28 62.96 71.51 61.25C69.76 59.5 68.91 57.49 68.91 55.1V45.25C67.82 45.26 66.2 44.9 64.32 43.78C64 43.59 63.67 43.36 63.34 43.11V55.1C63.34 58.98 64.77 62.34 67.6 65.11C70.43 67.87 73.86 69.27 77.8 69.27C81.71 69.27 85.14 67.87 87.98 65.11C90.81 62.34 92.24 58.98 92.24 55.1V39.84C92.24 39.1 91.96 38.45 91.4 37.91Z"
          fill="#67497F"/>
    <path d="M64.86 36.7C60.75 34.3 54.89 32.89 54.89 32.89C58.56 36.68 61.52 40.53 64.31 42.2C67.28 43.97 69.63 43.84 70.19 43.37C69.75 40.56 67.13 38.28 64.86 36.7Z" fill="#67497F"/>
    <path d="M71.13 35.85C69.67 38.05 69.69 39.85 70.02 40.29C72.19 40.05 74.03 38.13 75.31 36.46C77.29 33.41 78.58 28.98 78.58 28.98C75.56 31.64 72.51 33.77 71.13 35.85Z" fill="#67497F"/>
    <path d="M65.76 33.13C66.47 35.68 67.85 36.83 68.41 36.88C69.64 35.08 69.39 32.43 68.96 30.37C67.94 26.88 65.43 23.01 65.43 23.01C65.47 27.04 65.09 30.74 65.76 33.13Z" fill="#67497F"/>
    <path d="M53.47 55.59C57.63 54.45 60.67 50.86 60.67 46.6C60.67 41.42 55.83 37.28 50.3 37.11C50.03 37.1 49.73 37.1 49.45 37.1C49.35 37.1 49.26 37.09 49.16 37.09H39.57H35.55H16.25C15.5 37.09 14.84 37.36 14.29 37.9C13.74 38.44 13.46 39.09 13.46 39.82C13.46 40.19 13.54 40.55 13.69 40.89C13.84 41.22 14.04 41.51 14.29 41.76C14.54 42.01 14.84 42.21 15.17 42.35C15.51 42.5 15.87 42.57 16.25 42.57H25.14V66.53C25.14 66.91 25.22 67.27 25.37 67.61C25.52 67.94 25.73 68.23 25.98 68.47C26.23 68.71 26.53 68.9 26.87 69.04C27.21 69.18 27.56 69.25 27.91 69.25C28.28 69.25 28.64 69.18 28.97 69.04C29.31 68.9 29.6 68.71 29.85 68.47C30.11 68.23 30.31 67.94 30.46 67.6C30.61 67.26 30.69 66.9 30.69 66.53V42.57H34.06H44.52H49.16C50.81 42.57 52.19 43.01 53.38 43.93C54.51 44.8 55.06 45.79 55.06 46.96C55.06 48.14 54.51 49.14 53.37 50.01C52.2 50.92 50.82 51.37 49.15 51.37H35.54V66.54C35.54 67.29 35.82 67.94 36.38 68.47C37.2 69.24 38.36 69.46 39.39 69.05C39.72 68.91 40.02 68.72 40.28 68.48C40.54 68.23 40.74 67.94 40.89 67.61C41.04 67.27 41.12 66.91 41.12 66.54L41.14 56.11H46.93L55.92 68.51C56.44 69 57.09 69.25 57.85 69.25C58.2 69.25 58.56 69.18 58.89 69.04C59.22 68.9 59.52 68.71 59.77 68.47C60.03 68.23 60.23 67.94 60.38 67.6C60.53 67.27 60.61 66.9 60.61 66.53C60.61 65.77 60.34 65.12 59.88 64.69L53.47 55.59Z"
          fill="#67497F"/>
</svg>
